<?xml version="1.0" encoding="UTF-8"?>
    <svg width="800" height="450" version="1.1" xmlns="http://www.w3.org/2000/svg">
    <style>
        .row { font: 14px Arial; fill: #64748b; }
        .score { font: bold 14px Arial; fill: #64748b; }
    </style>
    <text x="400" y="40" text-anchor="middle" font-size="20px" font-weight="bold" fill="#64748b">Channel Performance Overview</text><rect x="150" y="80" width="500" height="30" fill="#eee" rx="5"/><rect x="150" y="80" width="333.65000000000003" height="30" fill="#eab308" rx="5"/>
        <text x="140" y="100" text-anchor="end" class="row">mix.txt</text>
        <text x="660" y="100" text-anchor="start" class="score">66.7% (S:100%)</text><rect x="150" y="130" width="500" height="30" fill="#eee" rx="5"/><rect x="150" y="130" width="75.0" height="30" fill="#ef4444" rx="5"/>
        <text x="140" y="150" text-anchor="end" class="row">vless.txt</text>
        <text x="660" y="150" text-anchor="start" class="score">15.0% (S:0%)</text><rect x="150" y="180" width="500" height="30" fill="#eee" rx="5"/><rect x="150" y="180" width="75.0" height="30" fill="#ef4444" rx="5"/>
        <text x="140" y="200" text-anchor="end" class="row">ss.txt</text>
        <text x="660" y="200" text-anchor="start" class="score">15.0% (S:0%)</text><rect x="150" y="230" width="500" height="30" fill="#eee" rx="5"/><rect x="150" y="230" width="75.0" height="30" fill="#ef4444" rx="5"/>
        <text x="140" y="250" text-anchor="end" class="row">meli_proxyy</text>
        <text x="660" y="250" text-anchor="start" class="score">15.0% (S:0%)</text><rect x="150" y="280" width="500" height="30" fill="#eee" rx="5"/><rect x="150" y="280" width="75.0" height="30" fill="#ef4444" rx="5"/>
        <text x="140" y="300" text-anchor="end" class="row">Parsashonam</text>
        <text x="660" y="300" text-anchor="start" class="score">15.0% (S:0%)</text><rect x="150" y="330" width="500" height="30" fill="#eee" rx="5"/><rect x="150" y="330" width="75.0" height="30" fill="#ef4444" rx="5"/>
        <text x="140" y="350" text-anchor="end" class="row">Spotify_Porteghali</text>
        <text x="660" y="350" text-anchor="start" class="score">15.0% (S:0%)</text><rect x="150" y="380" width="500" height="30" fill="#eee" rx="5"/><rect x="150" y="380" width="75.0" height="30" fill="#ef4444" rx="5"/>
        <text x="140" y="400" text-anchor="end" class="row">iphone02016vpn</text>
        <text x="660" y="400" text-anchor="start" class="score">15.0% (S:0%)</text></svg>